{"title":"Game of Thrones S04E03 HDTV x264 AAC E-Subs [GWC].mp4","uid":10007921,"size":140249178,"categoryP":"video","categoryS":"tv_shows","magnet":"?xt=urn:btih:22fb984a43d1d522d7a9ae614217a62b3a63960d&amp;dn=Game+of+Thrones+S04E03+HDTV+x264+AAC+E-Subs+%5BGWC%5D.mp4&amp;tr=udp%3A%2F%2Ftracker.openbittorrent.com%3A80&amp;tr=udp%3A%2F%2Fopen.demonii.com%3A1337&amp;tr=udp%3A%2F%2Ftracker.coppersurfer.tk%3A6969&amp;tr=udp%3A%2F%2Fexodus.desync.com%3A6969","seeders":6,"leechers":0,"uploader":"canc232","files":1,"time":1398063754,"description":"Game Of Thrones S04E03 HDTV x264 AAC E-Subs [GWC] \n\n\nSTORYLINE :\nNine noble families fight for control of the mythical land of Westeros. Political and sexual intrigue is pervasive. Robert Baratheon, King of Westeros, asks his old friend Eddard, Lord Stark, to serve as Hand of the King, or highest official. Secretly warned that the previous Hand was assassinated, Eddard accepts in order to investigate further. Meanwhile the Queen's family, the Lannisters, may be hatching a plot to take power. Across the sea, the last members of the previous and deposed ruling family, the Targaryens, are also scheming to regain the throne. The friction between the houses Stark, Lannister, Baratheon and Targaryen and with the remaining great houses Greyjoy, Tully, Arryn,Tyrell and Martell leads to full-scale war. All while a very ancient evil awakens in the farthest north. Amidst the war and political confusion, a neglected military order of misfits, the Night's Watch, is all that stands between the realms of men and icy horrors beyond. \n\n\nSCREENS : &lt;a href=&quot;\nhttp://i.imgur.com/jj2bAnf.jpg&quot; rel=&quot;nofollow&quot; target=&quot;_NEW&quot;&gt;\nhttp://i.imgur.com/jj2bAnf.jpg&lt;/a&gt; &lt;a href=&quot;\nhttp://i.imgur.com/DJWrVUZ.jpg&quot; rel=&quot;nofollow&quot; target=&quot;_NEW&quot;&gt;\nhttp://i.imgur.com/DJWrVUZ.jpg&lt;/a&gt; &lt;a href=&quot;\nhttp://i.imgur.com/9kvRSKg.jpg&quot; rel=&quot;nofollow&quot; target=&quot;_NEW&quot;&gt;\nhttp://i.imgur.com/9kvRSKg.jpg&lt;/a&gt;\n\n\nMEDIA INFO :\nGeneral \nFormat : MPEG-4 \nFormat profile : Base Media \nFile size : 134 MiB \nDuration : 56mn 52s \nOverall bit rate mode : Variable \nOverall bit rate : 329 Kbps \n\nVideo \nFormat : AVC \nFormat profile : &lt;a class=&quot;__cf_email__&quot; href=&quot;/cdn-cgi/l/email-protection&quot; data-cfemail=&quot;9ad2f3fdf2dad6a9b4aa&quot;&gt;[email&amp;#160;protected]&lt;/a&gt;&lt;script cf-hash='f9e31' type=&quot;text/javascript&quot;&gt;\n/* &lt;![CDATA[ */!function(){try{var t=&quot;currentScript&quot;in document?document.currentScript:function(){for(var t=document.getElementsByTagName(&quot;script&quot;),e=t.length;e--;)if(t[e].getAttribute(&quot;cf-hash&quot;))return t[e]}();if(t&amp;&amp;t.previousSibling){var e,r,n,i,c=t.previousSibling,a=c.getAttribute(&quot;data-cfemail&quot;);if(a){for(e=&quot;&quot;,r=parseInt(a.substr(0,2),16),n=2;a.length-n;n+=2)i=parseInt(a.substr(n,2),16)^r,e+=String.fromCharCode(i);e=document.createTextNode(e),c.parentNode.replaceChild(e,c)}}}catch(u){}}();/* ]]&gt; */&lt;/script&gt; \nFormat settings, CABAC : Yes \nFormat settings, ReFrames : 4 frames \nDuration : 56mn 51s \nBit rate : 265 Kbps \nMaximum bit rate : 6 079 Kbps \nWidth : 720 pixels \nHeight : 404 pixels \nDisplay aspect ratio : 16:9 \nFrame rate : 23.976 fps \nStream size : 108 MiB (81%) \nTitle : Game Of Thrones S04E03 HDTV x264 AAC E-Subs [GWC] \nWriting library : x264 core \n\nAudio \nFormat : AAC \nFormat profile : HE-AAC / LC \nDuration : 56mn 52s \nBit rate mode : Variable \nChannel(s) : 2 channels \nSampling rate : 48.0 KHz / 24.0 KHz \nStream size : 24.4 MiB (18%) \nLanguage : English \n\nText \nFormat : Timed Text \nTitle : English Subtitle by honeybunny \nLanguage : English ","torrent":{"xt":"urn:btih:22fb984a43d1d522d7a9ae614217a62b3a63960d","amp;dn":"Game+of+Thrones+S04E03+HDTV+x264+AAC+E-Subs+%5BGWC%5D.mp4","amp;tr":["udp%3A%2F%2Ftracker.openbittorrent.com%3A80","udp%3A%2F%2Fopen.demonii.com%3A1337","udp%3A%2F%2Ftracker.coppersurfer.tk%3A6969","udp%3A%2F%2Fexodus.desync.com%3A6969"],"infoHash":"22fb984a43d1d522d7a9ae614217a62b3a63960d","infoHashBuffer":{"type":"Buffer","data":[34,251,152,74,67,209,213,34,215,169,174,97,66,23,166,43,58,99,150,13]},"announce":[],"urlList":[]}}